<svg id="Layer_1" height="512" viewBox="0 0 512 512" width="512" xmlns="http://www.w3.org/2000/svg" data-name="Layer 1"><path d="m250.327 7.74a246 246 0 0 0 -173.948 419.948 246 246 0 1 0 347.9-347.9 244.386 244.386 0 0 0 -173.952-72.048zm165.463 411.46a234 234 0 0 1 -330.926-330.923 234 234 0 0 1 330.926 330.923z"/><path d="m250.327 56.183a196.264 196.264 0 0 0 -139.694 57.863c-77.027 77.027-77.027 202.36 0 279.388a197.78 197.78 0 0 0 279.388 0c77.028-77.028 77.028-202.361 0-279.388a196.26 196.26 0 0 0 -139.694-57.863zm131.209 328.766c-72.349 72.348-190.069 72.348-262.417 0s-72.349-190.069 0-262.418a185.558 185.558 0 0 1 262.417 0c72.349 72.349 72.349 190.069 0 262.418z"/><path d="m250.327 179.684a33.616 33.616 0 0 1 33.573 33.578 6 6 0 0 0 12 0 45.637 45.637 0 0 0 -39.578-45.171v-16.153a6 6 0 0 0 -12 0v16.153a45.572 45.572 0 0 0 6 90.748 33.575 33.575 0 0 1 .373 67.147c-.124-.008-.247-.019-.373-.019s-.249.011-.373.019a33.612 33.612 0 0 1 -33.205-33.568 6 6 0 0 0 -12 0 45.638 45.638 0 0 0 39.578 45.17v17.954a6 6 0 0 0 12 0v-17.954a45.572 45.572 0 0 0 -6-90.749 33.578 33.578 0 1 1 0-67.155z"/></svg>