<svg id="line_icons" height="512" viewBox="0 0 74 74" width="512" xmlns="http://www.w3.org/2000/svg" data-name="line icons"><path d="m37.14 72.2a35 35 0 1 1 35-35 35.04 35.04 0 0 1 -35 35zm0-68a33 33 0 1 0 33 33 33.036 33.036 0 0 0 -33-33z"/><path d="m37.14 62.917a25.719 25.719 0 1 1 25.719-25.717 25.748 25.748 0 0 1 -25.719 25.717zm0-49.438a23.719 23.719 0 1 0 23.719 23.721 23.746 23.746 0 0 0 -23.719-23.721z"/><path d="m37.14 52.121a7.97 7.97 0 0 1 -7.962-7.961 1 1 0 0 1 2 0 5.962 5.962 0 1 0 5.962-5.96 7.962 7.962 0 1 1 7.96-7.964 1 1 0 0 1 -2 0 5.962 5.962 0 1 0 -5.96 5.964 7.962 7.962 0 1 1 0 15.923z"/><path d="m37.14 24.274a1 1 0 0 1 -1-1v-2.19a1 1 0 0 1 2 0v2.19a1 1 0 0 1 -1 1z"/><path d="m37.14 54.311a1 1 0 0 1 -1-1v-2.19a1 1 0 1 1 2 0v2.19a1 1 0 0 1 -1 1z"/><path d="m37.14 9.532a1 1 0 0 1 -1-1v-1.474a1 1 0 0 1 2 0v1.474a1 1 0 0 1 -1 1z"/><path d="m25.481 12.011a1 1 0 0 1 -.915-.594l-.6-1.347a1 1 0 0 1 1.834-.814l.6 1.348a1 1 0 0 1 -.914 1.407z"/><path d="m15.837 19.017a.994.994 0 0 1 -.669-.257l-1.1-.987a1 1 0 1 1 1.338-1.486l1.1.986a1 1 0 0 1 -.669 1.744z"/><path d="m9.877 29.34a1.007 1.007 0 0 1 -.309-.049l-1.4-.456a1 1 0 1 1 .617-1.9l1.4.455a1 1 0 0 1 -.309 1.952z"/><path d="m7.164 41.348a1 1 0 0 1 -.1-1.994l1.462-.154a1 1 0 1 1 .209 1.989l-1.465.154c-.036.003-.07.005-.106.005z"/><path d="m11.038 53.268a1 1 0 0 1 -.5-1.866l1.277-.737a1 1 0 1 1 1 1.732l-1.277.737a.992.992 0 0 1 -.5.134z"/><path d="m19.423 62.582a1 1 0 0 1 -.809-1.582l.866-1.2a1 1 0 0 1 1.62 1.175l-.867 1.192a1 1 0 0 1 -.81.415z"/><path d="m30.874 67.68a1 1 0 0 1 -.979-1.208l.306-1.443a1 1 0 0 1 1.957.416l-.306 1.443a1 1 0 0 1 -.978.792z"/><path d="m43.405 67.68a1 1 0 0 1 -.977-.792l-.307-1.443a1 1 0 0 1 1.957-.416l.307 1.443a1 1 0 0 1 -.771 1.186.99.99 0 0 1 -.209.022z"/><path d="m54.856 62.582a1 1 0 0 1 -.81-.413l-.866-1.192a1 1 0 1 1 1.62-1.177l.865 1.2a1 1 0 0 1 -.809 1.587z"/><path d="m63.241 53.268a.992.992 0 0 1 -.5-.134l-1.276-.734a1 1 0 0 1 1-1.732l1.277.737a1 1 0 0 1 -.5 1.866z"/><path d="m67.116 41.348c-.034 0-.069 0-.105 0l-1.467-.154a1 1 0 0 1 -.89-1.1.985.985 0 0 1 1.1-.89l1.467.154a1 1 0 0 1 -.1 1.994z"/><path d="m64.4 29.34a1 1 0 0 1 -.308-1.952l1.4-.455a1 1 0 1 1 .617 1.9l-1.4.456a1.007 1.007 0 0 1 -.309.051z"/><path d="m58.442 19.017a1 1 0 0 1 -.669-1.744l1.1-.986a1 1 0 1 1 1.338 1.486l-1.1.987a.992.992 0 0 1 -.669.257z"/><path d="m48.8 12.011a1 1 0 0 1 -.912-1.408l.6-1.347a1 1 0 1 1 1.826.814l-.6 1.347a1 1 0 0 1 -.914.594z"/></svg>