<svg id="Icons" height="512" viewBox="0 0 74 74" width="512" xmlns="http://www.w3.org/2000/svg"><path d="m37 72a35 35 0 1 1 35-35 35.04 35.04 0 0 1 -35 35zm0-68a33 33 0 1 0 33 33 33.038 33.038 0 0 0 -33-33z"/><path d="m37 62a25 25 0 1 1 25-25 25.028 25.028 0 0 1 -25 25zm0-48a23 23 0 1 0 23 23 23.026 23.026 0 0 0 -23-23z"/><path d="m36 3h2v10h-2z"/><path d="m15.494 11.494h2v10h-2z" transform="matrix(.707 -.707 .707 .707 -6.832 16.494)"/><path d="m3 36h10v2h-10z"/><path d="m11.494 56.506h10v2h-10z" transform="matrix(.707 -.707 .707 .707 -35.832 28.506)"/><path d="m36 61h2v10h-2z"/><path d="m56.506 52.506h2v10h-2z" transform="matrix(.707 -.707 .707 .707 -23.82 57.506)"/><path d="m61 36h10v2h-10z"/><path d="m52.506 15.494h10v2h-10z" transform="matrix(.707 -.707 .707 .707 5.18 45.494)"/><path d="m37 38a7.038 7.038 0 1 1 7.038-7.038 1 1 0 1 1 -2 0 5.038 5.038 0 1 0 -5.038 5.038 1 1 0 0 1 0 2z"/><path d="m37 50.076a7.047 7.047 0 0 1 -7.038-7.038 1 1 0 0 1 2 0 5.038 5.038 0 1 0 5.038-5.038 1 1 0 0 1 0-2 7.038 7.038 0 0 1 0 14.076z"/><path d="m37 53a1 1 0 0 1 -1-1v-30a1 1 0 0 1 2 0v30a1 1 0 0 1 -1 1z"/></svg>