<?xml version="1.0" encoding="iso-8859-1"?>
<!-- Generator: Adobe Illustrator 19.0.0, SVG Export Plug-In . SVG Version: 6.00 Build 0)  -->
<svg version="1.1" id="Capa_1" xmlns="http://www.w3.org/2000/svg" xmlns:xlink="http://www.w3.org/1999/xlink" x="0px" y="0px"
	 viewBox="0 0 403.584 403.584" style="enable-background:new 0 0 403.584 403.584;" xml:space="preserve">
<g>
	<g>
		<path d="M205.542,192.128v-72.704c17.92,2.56,31.744,17.92,31.744,36.352c0,3.072,2.048,5.12,5.12,5.12
			c3.072,0,5.12-2.048,5.12-5.12c0-24.064-18.432-44.032-41.984-46.592V95.872c0-3.072-2.048-5.12-5.12-5.12
			c-3.072,0-5.12,2.048-5.12,5.12v13.312c-23.552,2.56-41.984,22.528-41.984,46.592s18.432,44.032,41.984,46.592v73.216
			c-16.896-3.072-30.208-18.432-30.208-36.352c0-3.072-2.048-5.12-5.12-5.12c-3.072,0-5.12,2.048-5.12,5.12
			c0,23.552,17.408,43.008,40.448,46.592v13.824c0,3.072,2.048,5.12,5.12,5.12c3.072,0,5.12-2.048,5.12-5.12v-13.312
			c24.576-1.536,43.52-22.016,43.52-47.104C249.062,214.656,229.606,194.176,205.542,192.128z M195.302,192.128
			c-17.92-2.56-31.744-17.92-31.744-36.352s13.824-33.792,31.744-36.352V192.128z M206.054,276.608V202.88
			c18.432,2.048,33.28,17.408,33.28,36.864C239.334,258.688,224.486,274.56,206.054,276.608z"/>
	</g>
</g>
<g>
	<g>
		<path d="M400.102,197.248l-40.96-20.48l32.768-32.256c1.536-1.536,2.048-3.584,1.024-5.12c-0.512-2.048-2.048-3.072-4.096-3.584
			l-44.032-7.168l20.992-40.448c1.024-1.536,0.512-3.584-0.512-5.12c-1.024-1.536-3.072-2.56-5.12-2.048l-45.056,7.68l7.68-45.056
			c0.512-2.048-0.512-3.584-2.048-5.12c-1.536-1.024-3.584-1.536-5.12-0.512l-40.448,20.992l-6.656-45.056
			c-0.512-2.048-1.536-3.584-3.584-4.096c-2.048-0.512-4.096,0-5.12,1.024l-32.256,32.768l-20.48-40.96
			c-1.536-3.584-7.168-3.584-9.216,0l-20.48,40.96L145.126,10.88c-1.536-1.536-3.584-2.048-5.12-1.024
			c-2.048,0.512-3.072,2.048-3.584,4.096l-6.656,45.056L89.318,38.016c-1.536-1.024-3.584-0.512-5.12,0.512
			c-1.536,1.024-2.56,3.072-2.048,5.12l7.68,45.056l-45.056-7.68c-2.048-0.512-3.584,0.512-5.12,2.048
			c-1.024,1.536-1.536,3.584-0.512,5.12l20.992,40.448l-45.056,6.656c-2.048,0.512-3.584,1.536-4.096,3.584
			c-0.512,2.048,0,4.096,1.024,5.12l32.768,32.256l-40.96,20.48c-1.536,1.024-3.072,2.56-3.072,4.608
			c-1.024,2.048,0.512,4.096,2.048,5.12l40.96,20.48L10.982,259.2c-1.536,1.536-2.048,3.584-1.024,5.12
			c0.512,2.048,2.048,3.072,4.096,3.584l45.056,6.656l-20.992,40.448c-1.024,1.536-0.512,3.584,0.512,5.12
			c1.024,1.536,3.072,2.56,5.12,2.048l45.056-7.68l-7.68,45.056c-0.512,2.048,0.512,3.584,2.048,5.12
			c1.536,1.024,3.584,1.536,5.12,0.512l40.448-20.992l6.656,45.056c0.512,2.048,1.536,3.584,3.584,4.096
			c2.048,0.512,4.096,0,5.12-1.024l32.256-32.768l20.48,40.96c1.024,1.536,2.56,3.072,4.608,3.072c2.048,0,3.584-1.024,4.608-3.072
			l20.48-40.96l32.256,32.768c1.536,1.536,3.584,2.048,5.12,1.024c2.048-0.512,3.072-2.048,3.584-4.096l6.656-45.056l40.448,20.992
			c1.536,1.024,3.584,0.512,5.12-0.512s2.56-3.072,2.048-5.12l-7.68-45.056l45.056,7.68c2.048,0.512,4.096-0.512,5.12-2.048
			s1.536-3.584,0.512-5.12l-20.992-40.448l45.056-6.656c2.048-0.512,3.584-1.536,4.096-3.584c0.512-2.048,0-4.096-1.024-5.12
			l-32.768-32.256l40.96-20.48c1.536-1.024,3.072-2.56,3.072-4.608C403.174,199.808,402.15,198.272,400.102,197.248z M349.414,220.8
			c-1.536,0.512-2.56,2.048-2.56,3.584c-0.512,1.536,0.512,3.072,1.536,4.608l30.208,30.208l-42.496,6.144
			c-1.536,0-3.072,1.024-3.584,2.56c-0.512,1.536-0.512,3.072,0,4.608l19.456,37.888l-41.984-7.168
			c-1.536-0.512-3.072,0.512-4.608,1.536c-1.024,1.024-1.536,3.072-1.536,4.608l7.168,41.984l-37.888-19.456
			c-1.536-0.512-3.072-1.024-4.608,0c-1.536,0.512-2.56,2.048-2.56,3.584l-6.144,42.496l-30.208-30.208
			c-1.024-1.024-3.072-1.536-4.608-1.536c-1.536,0.512-3.072,1.536-3.584,2.56l-18.944,38.4l-18.944-38.4
			c-0.512-1.536-2.048-2.56-3.584-2.56c-0.512,0-0.512,0-1.024,0c-1.536,0-2.56,0.512-3.584,1.536l-30.208,30.208l-6.144-42.496
			c0-1.536-1.024-3.072-2.56-3.584c-1.536-0.512-3.072-0.512-4.608,0L93.926,351.36l7.168-41.984
			c0.512-1.536-0.512-3.072-1.536-4.608c-1.024-1.024-3.072-1.536-4.608-1.536L52.966,310.4l19.456-37.888
			c0.512-1.536,0.512-3.072,0-4.608c-0.512-1.536-2.048-2.56-3.584-2.56L26.342,259.2l30.208-30.208
			c1.024-1.024,1.536-2.56,1.536-4.608c-0.512-1.536-1.536-3.072-2.56-3.584l-38.4-18.944L54.502,182.4
			c1.536-0.512,2.56-2.048,2.56-3.584c0.512-1.536-0.512-3.072-1.536-4.608L25.318,144l42.496-6.144c1.536,0,3.072-1.024,3.584-2.56
			c0.512-1.536,0.512-3.072,0-4.608L51.942,92.8l41.984,7.168c1.536,0,3.072-0.512,4.608-1.536c1.024-1.024,1.536-3.072,1.536-4.608
			L92.902,51.84l37.888,19.456c1.536,0.512,3.072,0.512,4.608,0c1.536-0.512,2.56-2.048,2.56-3.584l6.144-42.496l30.208,30.208
			c1.024,1.024,3.072,1.536,4.608,1.536c1.536-0.512,3.072-1.536,3.584-2.56L201.446,16l18.944,38.4
			c0.512,1.536,2.048,2.56,3.584,2.56c1.536,0.512,3.072-0.512,4.608-1.536l30.208-30.208l7.168,41.984
			c0,1.536,1.024,3.072,2.56,3.584s3.072,0.512,4.608,0l37.888-19.456l-7.168,41.984c-0.512,1.536,0.512,3.072,1.536,4.608
			c1.024,1.024,3.072,1.536,4.608,1.536l41.984-7.168l-19.456,38.4c-0.512,1.536-1.024,3.072,0,4.608
			c0.512,1.536,2.048,2.56,3.584,2.56L378.598,144l-30.208,30.208c-1.024,1.024-1.536,2.56-1.536,4.608
			c0.512,1.536,1.536,3.072,2.56,3.584l38.4,18.944L349.414,220.8z"/>
	</g>
</g>
<g>
</g>
<g>
</g>
<g>
</g>
<g>
</g>
<g>
</g>
<g>
</g>
<g>
</g>
<g>
</g>
<g>
</g>
<g>
</g>
<g>
</g>
<g>
</g>
<g>
</g>
<g>
</g>
<g>
</g>
</svg>
