<svg xmlns="http://www.w3.org/2000/svg" viewBox="0 0 19 36"><g fill="none" fill-rule="evenodd"><path fill="#2D2D2D" d="M0,0 L19,0 L19,36 L0,36 L0,0 Z M1,1 L1,35 L9.004,35 L14.996,35 L18,35 L18,1 L1,1 Z"/><path fill="#000000" d="M6 16C4.34314575 16 3 14.6568542 3 13 3 11.3431458 4.34314575 10 6 10 7.65685425 10 9 11.3431458 9 13 9 14.6568542 7.65685425 16 6 16zM6 15C7.1045695 15 8 14.1045695 8 13 8 11.8954305 7.1045695 11 6 11 4.8954305 11 4 11.8954305 4 13 4 14.1045695 4.8954305 15 6 15zM13 16C11.3431458 16 10 14.6568542 10 13 10 11.3431458 11.3431458 10 13 10 14.6568542 10 16 11.3431458 16 13 16 14.6568542 14.6568542 16 13 16zM13 15C14.1045695 15 15 14.1045695 15 13 15 11.8954305 14.1045695 11 13 11 11.8954305 11 11 11.8954305 11 13 11 14.1045695 11.8954305 15 13 15zM13 17C14.6568542 17 16 18.3431458 16 20L16 27C16 28.6568542 14.6568542 30 13 30 11.3431458 30 10 28.6568542 10 27L10 20C10 18.3431458 11.3431458 17 13 17zM13 18C11.8954305 18 11 18.8954305 11 20L11 27C11 28.1045695 11.8954305 29 13 29 14.1045695 29 15 28.1045695 15 27L15 20C15 18.8954305 14.1045695 18 13 18zM6 23C4.34314575 23 3 21.6568542 3 20 3 18.3431458 4.34314575 17 6 17 7.65685425 17 9 18.3431458 9 20 9 21.6568542 7.65685425 23 6 23zM6 22C7.1045695 22 8 21.1045695 8 20 8 18.8954305 7.1045695 18 6 18 4.8954305 18 4 18.8954305 4 20 4 21.1045695 4.8954305 22 6 22zM6 30C4.34314575 30 3 28.6568542 3 27 3 25.3431458 4.34314575 24 6 24 7.65685425 24 9 25.3431458 9 27 9 28.6568542 7.65685425 30 6 30zM6 29C7.1045695 29 8 28.1045695 8 27 8 25.8954305 7.1045695 25 6 25 4.8954305 25 4 25.8954305 4 27 4 28.1045695 4.8954305 29 6 29z"/></g></svg>