<svg xmlns="http://www.w3.org/2000/svg" viewBox="0 0 44 36"><g fill="none" fill-rule="evenodd"><path fill="#2D2D2D" d="M0,0 L44,0 L44,36 L0,36 L0,0 Z M1,1 L1,35 L15.004,35 L18.996,35 L43,35 L43,1 L1,1 Z"/><path fill="#000000" d="M22,26 C17.581722,26 14,22.418278 14,18 C14,13.581722 17.581722,10 22,10 C26.418278,10 30,13.581722 30,18 C30,22.418278 26.418278,26 22,26 Z M22,25 C25.8659932,25 29,21.8659932 29,18 C29,14.1340068 25.8659932,11 22,11 C18.1340068,11 15,14.1340068 15,18 C15,21.8659932 18.1340068,25 22,25 Z"/></g></svg>